<svg width="28" height="28" viewBox="0 0 28 28" fill="none" xmlns="http://www.w3.org/2000/svg">
<rect width="28" height="28" rx="4" fill="#262626"/>
<mask id="mask0_363_1721" style="mask-type:alpha" maskUnits="userSpaceOnUse" x="4" y="4" width="20" height="20">
<rect x="4" y="4" width="20" height="20" fill="#D9D9D9"/>
</mask>
<g mask="url(#mask0_363_1721)">
<path d="M19.7146 11.5L14.0003 14.625L8.28599 11.5V10.25L14.0003 13.375L19.7146 10.25M19.7146 9H8.28599C7.49314 9 6.85742 9.55625 6.85742 10.25V17.75C6.85742 18.0815 7.00793 18.3995 7.27584 18.6339C7.54375 18.8683 7.90711 19 8.28599 19H19.7146C20.0934 19 20.4568 18.8683 20.7247 18.6339C20.9926 18.3995 21.1431 18.0815 21.1431 17.75V10.25C21.1431 9.91848 20.9926 9.60054 20.7247 9.36612C20.4568 9.1317 20.0934 9 19.7146 9Z" fill="white"/>
</g>
</svg>
