<svg width="28" height="28" viewBox="0 0 28 28" fill="none" xmlns="http://www.w3.org/2000/svg">
<rect width="28" height="28" rx="4" fill="#262626"/>
<mask id="mask0_363_1720" style="mask-type:alpha" maskUnits="userSpaceOnUse" x="3" y="3" width="22" height="22">
<rect x="3" y="3" width="22" height="22" fill="#D9D9D9"/>
</mask>
<g mask="url(#mask0_363_1720)">
<path d="M7.58398 22.2498C6.8201 22.2498 6.17079 21.9825 5.63607 21.4478C5.10135 20.913 4.83398 20.2637 4.83398 19.4998V13.0832C4.83398 12.3193 5.10135 11.67 5.63607 11.1353C6.17079 10.6005 6.8201 10.3332 7.58398 10.3332C7.99648 10.3332 8.37461 10.4172 8.71836 10.5853C9.06211 10.7533 9.36385 10.9748 9.62357 11.2498H10.334V8.49984C10.334 7.99567 10.5135 7.56407 10.8725 7.20505C11.2316 6.84602 11.6632 6.6665 12.1673 6.6665H17.6673C18.1715 6.6665 18.6031 6.84602 18.9621 7.20505C19.3211 7.56407 19.5007 7.99567 19.5007 8.49984V11.2498H20.4173C21.1812 11.2498 21.8305 11.5172 22.3652 12.0519C22.9 12.5866 23.1673 13.2359 23.1673 13.9998V19.4998C23.1673 20.004 22.9878 20.4356 22.6288 20.7946C22.2697 21.1537 21.8382 21.3332 21.334 21.3332H9.62357C9.36385 21.6082 9.06211 21.8297 8.71836 21.9978C8.37461 22.1658 7.99648 22.2498 7.58398 22.2498ZM7.58398 20.4165C7.84371 20.4165 8.06141 20.3287 8.23711 20.153C8.4128 19.9773 8.50065 19.7596 8.50065 19.4998V13.0832C8.50065 12.8234 8.4128 12.6057 8.23711 12.43C8.06141 12.2544 7.84371 12.1665 7.58398 12.1665C7.32426 12.1665 7.10655 12.2544 6.93086 12.43C6.75516 12.6057 6.66732 12.8234 6.66732 13.0832V19.4998C6.66732 19.7596 6.75516 19.9773 6.93086 20.153C7.10655 20.3287 7.32426 20.4165 7.58398 20.4165ZM12.1673 11.2498H17.6673V8.49984H12.1673V11.2498ZM10.334 19.4998H21.334V13.9998C21.334 13.7401 21.2461 13.5224 21.0704 13.3467C20.8947 13.171 20.677 13.0832 20.4173 13.0832H10.334V19.4998ZM16.7507 15.8332C17.0104 15.8332 17.2281 15.7453 17.4038 15.5696C17.5795 15.3939 17.6673 15.1762 17.6673 14.9165C17.6673 14.6568 17.5795 14.4391 17.4038 14.2634C17.2281 14.0877 17.0104 13.9998 16.7507 13.9998C16.4909 13.9998 16.2732 14.0877 16.0975 14.2634C15.9218 14.4391 15.834 14.6568 15.834 14.9165C15.834 15.1762 15.9218 15.3939 16.0975 15.5696C16.2732 15.7453 16.4909 15.8332 16.7507 15.8332ZM19.5007 15.8332C19.7604 15.8332 19.9781 15.7453 20.1538 15.5696C20.3295 15.3939 20.4173 15.1762 20.4173 14.9165C20.4173 14.6568 20.3295 14.4391 20.1538 14.2634C19.9781 14.0877 19.7604 13.9998 19.5007 13.9998C19.2409 13.9998 19.0232 14.0877 18.8475 14.2634C18.6718 14.4391 18.584 14.6568 18.584 14.9165C18.584 15.1762 18.6718 15.3939 18.8475 15.5696C19.0232 15.7453 19.2409 15.8332 19.5007 15.8332ZM16.7507 18.5832C17.0104 18.5832 17.2281 18.4953 17.4038 18.3196C17.5795 18.1439 17.6673 17.9262 17.6673 17.6665C17.6673 17.4068 17.5795 17.1891 17.4038 17.0134C17.2281 16.8377 17.0104 16.7498 16.7507 16.7498C16.4909 16.7498 16.2732 16.8377 16.0975 17.0134C15.9218 17.1891 15.834 17.4068 15.834 17.6665C15.834 17.9262 15.9218 18.1439 16.0975 18.3196C16.2732 18.4953 16.4909 18.5832 16.7507 18.5832ZM19.5007 18.5832C19.7604 18.5832 19.9781 18.4953 20.1538 18.3196C20.3295 18.1439 20.4173 17.9262 20.4173 17.6665C20.4173 17.4068 20.3295 17.1891 20.1538 17.0134C19.9781 16.8377 19.7604 16.7498 19.5007 16.7498C19.2409 16.7498 19.0232 16.8377 18.8475 17.0134C18.6718 17.1891 18.584 17.4068 18.584 17.6665C18.584 17.9262 18.6718 18.1439 18.8475 18.3196C19.0232 18.4953 19.2409 18.5832 19.5007 18.5832ZM12.1673 18.5832H14.0007C14.2604 18.5832 14.4781 18.4953 14.6538 18.3196C14.8295 18.1439 14.9173 17.9262 14.9173 17.6665V14.9165C14.9173 14.6568 14.8295 14.4391 14.6538 14.2634C14.4781 14.0877 14.2604 13.9998 14.0007 13.9998H12.1673C11.9076 13.9998 11.6899 14.0877 11.5142 14.2634C11.3385 14.4391 11.2507 14.6568 11.2507 14.9165V17.6665C11.2507 17.9262 11.3385 18.1439 11.5142 18.3196C11.6899 18.4953 11.9076 18.5832 12.1673 18.5832Z" fill="white"/>
</g>
</svg>
