<svg width="28" height="28" viewBox="0 0 28 28" fill="none" xmlns="http://www.w3.org/2000/svg">
<rect width="28" height="28" rx="4" fill="#262626"/>
<mask id="mask0_363_1718" style="mask-type:alpha" maskUnits="userSpaceOnUse" x="4" y="4" width="20" height="20">
<rect x="4" y="4" width="20" height="20" fill="#D9D9D9"/>
</mask>
<g mask="url(#mask0_363_1718)">
<path d="M19 11.7775C19 10.5987 18.4732 9.46825 17.5355 8.63476C16.5979 7.80126 15.3261 7.33301 14 7.33301C12.6739 7.33301 11.4021 7.80126 10.4645 8.63476C9.52678 9.46825 9 10.5987 9 11.7775C9 16.0219 14 20.6663 14 20.6663C14 20.6663 19 16.0219 19 11.7775ZM11.3 11.8308C11.3 11.5157 11.3698 11.2036 11.5055 10.9125C11.6412 10.6213 11.8401 10.3568 12.0909 10.134C12.3416 9.91125 12.6393 9.73456 12.9668 9.61404C13.2944 9.49353 13.6455 9.43156 14 9.43167C14.716 9.43167 15.4026 9.68448 15.9088 10.1345C16.4151 10.5845 16.6995 11.1948 16.6995 11.8312C16.6995 12.4676 16.4151 13.078 15.9088 13.528C15.4026 13.978 14.716 14.2308 14 14.2308C13.2839 14.2308 12.5972 13.9779 12.0908 13.5278C11.5845 13.0778 11.3 12.4673 11.3 11.8308Z" fill="white"/>
</g>
</svg>
