<svg width="40" height="40" viewBox="0 0 40 40" fill="none" xmlns="http://www.w3.org/2000/svg">
<rect x="0.5" y="0.5" width="38.8477" height="39" rx="19.4239" stroke="#C94050"/>
<g clip-path="url(#clip0_412_1720)">
<path d="M14.9395 16.9754V28.0357H11.0739V16.9754H14.9395ZM15.1855 13.5603C15.1933 14.1034 14.9961 14.5573 14.5939 14.9219C14.1917 15.2864 13.6626 15.4687 13.0067 15.4687H12.9832C12.3429 15.4687 11.8275 15.2864 11.437 14.9219C11.0465 14.5573 10.8513 14.1034 10.8513 13.5603C10.8513 13.0097 11.0524 12.5539 11.4546 12.1931C11.8568 11.8322 12.3819 11.6518 13.0301 11.6518C13.6783 11.6518 14.1976 11.8322 14.588 12.1931C14.9785 12.5539 15.1776 13.0097 15.1855 13.5603ZM28.8438 21.6964V28.0357H24.99V22.1205C24.99 21.3393 24.8318 20.7273 24.5155 20.2846C24.1993 19.8419 23.7053 19.6205 23.0337 19.6205C22.5418 19.6205 22.1298 19.7489 21.7979 20.0056C21.466 20.2623 21.2181 20.5803 21.0541 20.9598C20.9682 21.183 20.9252 21.4844 20.9252 21.8638V28.0357H17.0714C17.087 25.067 17.0948 22.66 17.0948 20.8147C17.0948 18.9695 17.0909 17.8683 17.0831 17.5112L17.0714 16.9754H20.9252V18.5826H20.9018C21.058 18.3445 21.2181 18.1362 21.3821 17.9576C21.5461 17.779 21.7667 17.5856 22.0439 17.3772C22.3211 17.1689 22.6609 17.0071 23.063 16.8917C23.4652 16.7764 23.9123 16.7187 24.4043 16.7187C25.7396 16.7187 26.8134 17.141 27.6256 17.9855C28.4377 18.83 28.8438 20.067 28.8438 21.6964Z" fill="#BF3646"/>
</g>
<defs>
<clipPath id="clip0_412_1720">
<rect width="18" height="20" fill="white" transform="matrix(1 0 0 -1 10.8477 30)"/>
</clipPath>
</defs>
</svg>
