<svg width="45" height="40" viewBox="0 0 45 40" fill="none" xmlns="http://www.w3.org/2000/svg">
<rect x="0.5" y="0.5" width="39" height="39" rx="19.5" stroke="#C94050"/>
<g clip-path="url(#clip0_412_1712)">
<path d="M29.4451 14.5536C28.9352 15.2827 28.3187 15.904 27.5957 16.4174C27.6033 16.5216 27.6071 16.6778 27.6071 16.8862C27.6071 17.8534 27.4625 18.8188 27.1733 19.7824C26.8841 20.7459 26.4446 21.6704 25.8547 22.5558C25.2649 23.4412 24.5628 24.2243 23.7485 24.9051C22.9341 25.5859 21.9524 26.1291 20.8031 26.5346C19.6539 26.9401 18.4248 27.1429 17.1157 27.1429C15.0532 27.1429 13.1658 26.6034 11.4534 25.5245C11.7197 25.5543 12.0166 25.5692 12.3438 25.5692C14.0562 25.5692 15.5822 25.0558 16.9217 24.029C16.1225 24.0141 15.4071 23.7742 14.7754 23.3091C14.1438 22.8441 13.7099 22.2507 13.474 21.529C13.7252 21.5662 13.9573 21.5848 14.1704 21.5848C14.4977 21.5848 14.8211 21.5439 15.1408 21.462C14.2884 21.2909 13.5825 20.8761 13.0231 20.2176C12.4637 19.5591 12.184 18.7946 12.184 17.9241V17.8795C12.7015 18.1622 13.2571 18.3147 13.8507 18.337C13.3484 18.0097 12.9489 17.5818 12.6521 17.0536C12.3552 16.5253 12.2068 15.9524 12.2068 15.3348C12.2068 14.6801 12.3743 14.0737 12.7091 13.5156C13.63 14.6243 14.7507 15.5115 16.0712 16.1775C17.3916 16.8434 18.8053 17.2135 20.3122 17.2879C20.2514 17.0052 20.2209 16.7299 20.2209 16.462C20.2209 15.465 20.5805 14.615 21.2997 13.9118C22.0189 13.2087 22.8885 12.8571 23.9083 12.8571C24.9738 12.8571 25.8719 13.2366 26.6025 13.9955C27.4321 13.8393 28.2122 13.5491 28.9428 13.125C28.6612 13.9806 28.1208 14.6429 27.3217 15.1116C28.0295 15.0372 28.7373 14.8512 29.4451 14.5536Z" fill="#BF3646"/>
</g>
<defs>
<clipPath id="clip0_412_1712">
<rect width="19" height="20" fill="white" transform="matrix(1 0 0 -1 10.9492 30)"/>
</clipPath>
</defs>
</svg>
