<svg width="40" height="40" viewBox="0 0 40 40" fill="none" xmlns="http://www.w3.org/2000/svg">
<rect x="0.5" y="0.5" width="39" height="39" rx="19.5" stroke="#C94050"/>
<g clip-path="url(#clip0_412_1717)">
<path d="M17.8338 22.5893L23.2356 19.7991L17.8338 16.9754V22.5893ZM19.8985 12.9687C21.1485 12.9687 22.3557 12.9855 23.5202 13.019C24.6846 13.0525 25.5384 13.0878 26.0815 13.125L26.8963 13.1696C26.9037 13.1696 26.967 13.1752 27.086 13.1864C27.2051 13.1975 27.2906 13.2087 27.3427 13.2199C27.3948 13.231 27.4822 13.2478 27.605 13.2701C27.7277 13.2924 27.8338 13.3222 27.9231 13.3594C28.0123 13.3966 28.1165 13.4449 28.2356 13.5045C28.3546 13.564 28.4699 13.6365 28.5815 13.7221C28.6932 13.8077 28.801 13.9062 28.9052 14.0179C28.9498 14.0625 29.0075 14.1313 29.0782 14.2243C29.1489 14.3173 29.2568 14.535 29.4019 14.8772C29.5469 15.2195 29.6455 15.5952 29.6976 16.0045C29.7571 16.4807 29.8036 16.9885 29.8371 17.5279C29.8706 18.0673 29.8911 18.4896 29.8985 18.7946V19.2411V20.7589C29.9059 21.8378 29.839 22.9167 29.6976 23.9955C29.6455 24.4048 29.5525 24.7749 29.4186 25.106C29.2847 25.4371 29.1656 25.6659 29.0615 25.7924L28.9052 25.9821C28.801 26.0937 28.6932 26.1923 28.5815 26.2779C28.4699 26.3635 28.3546 26.4342 28.2356 26.49C28.1165 26.5458 28.0123 26.5923 27.9231 26.6295C27.8338 26.6667 27.7277 26.6964 27.605 26.7187C27.4822 26.7411 27.3929 26.7578 27.3371 26.769C27.2813 26.7801 27.1958 26.7913 27.0804 26.8025C26.9651 26.8136 26.9037 26.8192 26.8963 26.8192C25.0287 26.9606 22.6961 27.0312 19.8985 27.0312C18.3583 27.0164 17.0209 26.9922 15.8862 26.9587C14.7516 26.9252 14.0057 26.8973 13.6485 26.875L13.1016 26.8304L12.6998 26.7857C12.432 26.7485 12.2292 26.7113 12.0916 26.6741C11.9539 26.6369 11.7642 26.5588 11.5224 26.4397C11.2806 26.3207 11.0704 26.1682 10.8918 25.9821C10.8472 25.9375 10.7895 25.8687 10.7188 25.7757C10.6481 25.6827 10.5402 25.465 10.3952 25.1228C10.2501 24.7805 10.1515 24.4048 10.0994 23.9955C10.0399 23.5193 9.99337 23.0115 9.95989 22.4721C9.92641 21.9327 9.90595 21.5104 9.89851 21.2054V20.7589V19.2411C9.89107 18.1622 9.95803 17.0833 10.0994 16.0045C10.1515 15.5952 10.2445 15.2251 10.3784 14.894C10.5123 14.5629 10.6314 14.3341 10.7356 14.2076L10.8918 14.0179C10.996 13.9062 11.1039 13.8077 11.2155 13.7221C11.3271 13.6365 11.4424 13.564 11.5615 13.5045C11.6805 13.4449 11.7847 13.3966 11.874 13.3594C11.9632 13.3222 12.0693 13.2924 12.192 13.2701C12.3148 13.2478 12.4022 13.231 12.4543 13.2199C12.5064 13.2087 12.592 13.1975 12.711 13.1864C12.8301 13.1752 12.8933 13.1696 12.9007 13.1696C14.7683 13.0357 17.1009 12.9687 19.8985 12.9687Z" fill="#BF3646"/>
</g>
<defs>
<clipPath id="clip0_412_1717">
<rect width="20" height="20" fill="white" transform="matrix(1 0 0 -1 9.89844 30)"/>
</clipPath>
</defs>
</svg>
