<svg width="48" height="48" viewBox="0 0 48 48" fill="none" xmlns="http://www.w3.org/2000/svg">
<mask id="mask0_336_2074" style="mask-type:alpha" maskUnits="userSpaceOnUse" x="0" y="0" width="48" height="49">
<rect x="48" y="48.0044" width="48" height="48" transform="rotate(180 48 48.0044)" fill="#D9D9D9"/>
</mask>
<g mask="url(#mask0_336_2074)">
<path d="M32.3504 22.0043L22.5504 12.2043C22.1504 11.8043 21.9587 11.3376 21.9754 10.8043C21.9921 10.271 22.2004 9.8043 22.6004 9.4043C23.0004 9.03763 23.4671 8.84596 24.0004 8.8293C24.5337 8.81263 25.0004 9.0043 25.4004 9.4043L38.6004 22.6043C38.8004 22.8043 38.9421 23.021 39.0254 23.2543C39.1087 23.4876 39.1504 23.7376 39.1504 24.0043C39.1504 24.271 39.1087 24.521 39.0254 24.7543C38.9421 24.9876 38.8004 25.2043 38.6004 25.4043L25.4004 38.6043C25.0337 38.971 24.5754 39.1543 24.0254 39.1543C23.4754 39.1543 23.0004 38.971 22.6004 38.6043C22.2004 38.2043 22.0004 37.7293 22.0004 37.1793C22.0004 36.6293 22.2004 36.1543 22.6004 35.7543L32.3504 26.0043L10.0004 26.0043C9.43372 26.0043 8.95872 25.8126 8.57539 25.4293C8.19206 25.046 8.00039 24.571 8.00039 24.0043C8.00039 23.4376 8.19206 22.9626 8.57539 22.5793C8.95872 22.196 9.43372 22.0043 10.0004 22.0043L32.3504 22.0043Z" fill="#2D2D2D"/>
</g>
</svg>
