<svg width="28" height="28" viewBox="0 0 28 28" fill="none" xmlns="http://www.w3.org/2000/svg">
<rect width="28" height="28" rx="4" fill="#C94050"/>
<mask id="mask0_1041_2160" style="mask-type:alpha" maskUnits="userSpaceOnUse" x="4" y="4" width="20" height="20">
<rect x="4" y="4" width="20" height="20" fill="#D9D9D9"/>
</mask>
<g mask="url(#mask0_1041_2160)">
<path d="M20.625 21.5C18.8889 21.5 17.1736 21.1215 15.4792 20.3646C13.7847 19.6076 12.2431 18.5347 10.8542 17.1458C9.46528 15.7569 8.39236 14.2153 7.63542 12.5208C6.87847 10.8264 6.5 9.11111 6.5 7.375C6.5 7.125 6.58333 6.91667 6.75 6.75C6.91667 6.58333 7.125 6.5 7.375 6.5H10.75C10.9444 6.5 11.1181 6.56597 11.2708 6.69792C11.4236 6.82986 11.5139 6.98611 11.5417 7.16667L12.0833 10.0833C12.1111 10.3056 12.1042 10.4931 12.0625 10.6458C12.0208 10.7986 11.9444 10.9306 11.8333 11.0417L9.8125 13.0833C10.0903 13.5972 10.4201 14.0938 10.8021 14.5729C11.184 15.0521 11.6042 15.5139 12.0625 15.9583C12.4931 16.3889 12.9444 16.7882 13.4167 17.1562C13.8889 17.5243 14.3889 17.8611 14.9167 18.1667L16.875 16.2083C17 16.0833 17.1632 15.9896 17.3646 15.9271C17.566 15.8646 17.7639 15.8472 17.9583 15.875L20.8333 16.4583C21.0278 16.5139 21.1875 16.6146 21.3125 16.7604C21.4375 16.9062 21.5 17.0694 21.5 17.25V20.625C21.5 20.875 21.4167 21.0833 21.25 21.25C21.0833 21.4167 20.875 21.5 20.625 21.5ZM9.02083 11.5L10.3958 10.125L10.0417 8.16667H8.1875C8.25694 8.73611 8.35417 9.29861 8.47917 9.85417C8.60417 10.4097 8.78472 10.9583 9.02083 11.5ZM16.4792 18.9583C17.0208 19.1944 17.5729 19.3819 18.1354 19.5208C18.6979 19.6597 19.2639 19.75 19.8333 19.7917V17.9583L17.875 17.5625L16.4792 18.9583Z" fill="white"/>
</g>
</svg>
