<svg width="28" height="28" viewBox="0 0 28 28" fill="none" xmlns="http://www.w3.org/2000/svg">
<rect width="28" height="28" rx="4" fill="#C94050"/>
<mask id="mask0_1041_2125" style="mask-type:alpha" maskUnits="userSpaceOnUse" x="4" y="4" width="20" height="20">
<rect x="4" y="4" width="20" height="20" fill="#D9D9D9"/>
</mask>
<g mask="url(#mask0_1041_2125)">
<path d="M19 11.7776C19 10.5988 18.4732 9.46837 17.5355 8.63488C16.5979 7.80138 15.3261 7.33313 14 7.33313C12.6739 7.33313 11.4021 7.80138 10.4645 8.63488C9.52678 9.46837 9 10.5988 9 11.7776C9 16.022 14 20.6665 14 20.6665C14 20.6665 19 16.022 19 11.7776ZM11.3 11.8309C11.3 11.5158 11.3698 11.2037 11.5055 10.9126C11.6412 10.6215 11.8401 10.357 12.0909 10.1342C12.3416 9.91138 12.6393 9.73468 12.9668 9.61416C13.2944 9.49365 13.6455 9.43168 14 9.4318C14.716 9.4318 15.4026 9.68461 15.9088 10.1346C16.4151 10.5846 16.6995 11.195 16.6995 11.8314C16.6995 12.4678 16.4151 13.0781 15.9088 13.5281C15.4026 13.9781 14.716 14.2309 14 14.2309C13.2839 14.2309 12.5972 13.9781 12.0908 13.528C11.5845 13.0779 11.3 12.4674 11.3 11.8309Z" fill="white"/>
</g>
</svg>
