<svg width="28" height="28" viewBox="0 0 28 28" fill="none" xmlns="http://www.w3.org/2000/svg">
<rect width="28" height="28" rx="4" fill="#C94050"/>
<mask id="mask0_1041_2195" style="mask-type:alpha" maskUnits="userSpaceOnUse" x="3" y="3" width="22" height="22">
<rect x="3" y="3" width="22" height="22" fill="#D9D9D9"/>
</mask>
<g mask="url(#mask0_1041_2195)">
<path d="M7.58203 22.25C6.81814 22.25 6.16884 21.9826 5.63411 21.4479C5.09939 20.9132 4.83203 20.2638 4.83203 19.5V13.0833C4.83203 12.3194 5.09939 11.6701 5.63411 11.1354C6.16884 10.6007 6.81814 10.3333 7.58203 10.3333C7.99453 10.3333 8.37266 10.4173 8.71641 10.5854C9.06016 10.7534 9.36189 10.975 9.62161 11.25H10.332V8.49996C10.332 7.99579 10.5115 7.5642 10.8706 7.20517C11.2296 6.84614 11.6612 6.66663 12.1654 6.66663H17.6654C18.1695 6.66663 18.6011 6.84614 18.9602 7.20517C19.3192 7.5642 19.4987 7.99579 19.4987 8.49996V11.25H20.4154C21.1793 11.25 21.8286 11.5173 22.3633 12.052C22.898 12.5868 23.1654 13.2361 23.1654 14V19.5C23.1654 20.0041 22.9859 20.4357 22.6268 20.7948C22.2678 21.1538 21.8362 21.3333 21.332 21.3333H9.62161C9.36189 21.6083 9.06016 21.8298 8.71641 21.9979C8.37266 22.1659 7.99453 22.25 7.58203 22.25ZM7.58203 20.4166C7.84175 20.4166 8.05946 20.3288 8.23516 20.1531C8.41085 19.9774 8.4987 19.7597 8.4987 19.5V13.0833C8.4987 12.8236 8.41085 12.6059 8.23516 12.4302C8.05946 12.2545 7.84175 12.1666 7.58203 12.1666C7.32231 12.1666 7.1046 12.2545 6.92891 12.4302C6.75321 12.6059 6.66536 12.8236 6.66536 13.0833V19.5C6.66536 19.7597 6.75321 19.9774 6.92891 20.1531C7.1046 20.3288 7.32231 20.4166 7.58203 20.4166ZM12.1654 11.25H17.6654V8.49996H12.1654V11.25ZM10.332 19.5H21.332V14C21.332 13.7402 21.2442 13.5225 21.0685 13.3468C20.8928 13.1711 20.6751 13.0833 20.4154 13.0833H10.332V19.5ZM16.7487 15.8333C17.0084 15.8333 17.2261 15.7454 17.4018 15.5698C17.5775 15.3941 17.6654 15.1763 17.6654 14.9166C17.6654 14.6569 17.5775 14.4392 17.4018 14.2635C17.2261 14.0878 17.0084 14 16.7487 14C16.489 14 16.2713 14.0878 16.0956 14.2635C15.9199 14.4392 15.832 14.6569 15.832 14.9166C15.832 15.1763 15.9199 15.3941 16.0956 15.5698C16.2713 15.7454 16.489 15.8333 16.7487 15.8333ZM19.4987 15.8333C19.7584 15.8333 19.9761 15.7454 20.1518 15.5698C20.3275 15.3941 20.4154 15.1763 20.4154 14.9166C20.4154 14.6569 20.3275 14.4392 20.1518 14.2635C19.9761 14.0878 19.7584 14 19.4987 14C19.239 14 19.0213 14.0878 18.8456 14.2635C18.6699 14.4392 18.582 14.6569 18.582 14.9166C18.582 15.1763 18.6699 15.3941 18.8456 15.5698C19.0213 15.7454 19.239 15.8333 19.4987 15.8333ZM16.7487 18.5833C17.0084 18.5833 17.2261 18.4954 17.4018 18.3198C17.5775 18.1441 17.6654 17.9263 17.6654 17.6666C17.6654 17.4069 17.5775 17.1892 17.4018 17.0135C17.2261 16.8378 17.0084 16.75 16.7487 16.75C16.489 16.75 16.2713 16.8378 16.0956 17.0135C15.9199 17.1892 15.832 17.4069 15.832 17.6666C15.832 17.9263 15.9199 18.1441 16.0956 18.3198C16.2713 18.4954 16.489 18.5833 16.7487 18.5833ZM19.4987 18.5833C19.7584 18.5833 19.9761 18.4954 20.1518 18.3198C20.3275 18.1441 20.4154 17.9263 20.4154 17.6666C20.4154 17.4069 20.3275 17.1892 20.1518 17.0135C19.9761 16.8378 19.7584 16.75 19.4987 16.75C19.239 16.75 19.0213 16.8378 18.8456 17.0135C18.6699 17.1892 18.582 17.4069 18.582 17.6666C18.582 17.9263 18.6699 18.1441 18.8456 18.3198C19.0213 18.4954 19.239 18.5833 19.4987 18.5833ZM12.1654 18.5833H13.9987C14.2584 18.5833 14.4761 18.4954 14.6518 18.3198C14.8275 18.1441 14.9154 17.9263 14.9154 17.6666V14.9166C14.9154 14.6569 14.8275 14.4392 14.6518 14.2635C14.4761 14.0878 14.2584 14 13.9987 14H12.1654C11.9056 14 11.6879 14.0878 11.5122 14.2635C11.3365 14.4392 11.2487 14.6569 11.2487 14.9166V17.6666C11.2487 17.9263 11.3365 18.1441 11.5122 18.3198C11.6879 18.4954 11.9056 18.5833 12.1654 18.5833Z" fill="white"/>
</g>
</svg>
