<svg width="28" height="28" viewBox="0 0 28 28" fill="none" xmlns="http://www.w3.org/2000/svg">
<rect width="28" height="28" rx="4" fill="#C94050"/>
<mask id="mask0_1041_2225" style="mask-type:alpha" maskUnits="userSpaceOnUse" x="4" y="4" width="20" height="20">
<rect x="4" y="4" width="20" height="20" fill="#D9D9D9"/>
</mask>
<g mask="url(#mask0_1041_2225)">
<path d="M19.7126 11.5L13.9983 14.625L8.28404 11.5V10.25L13.9983 13.375L19.7126 10.25M19.7126 9H8.28404C7.49118 9 6.85547 9.55625 6.85547 10.25V17.75C6.85547 18.0815 7.00598 18.3995 7.27389 18.6339C7.5418 18.8683 7.90516 19 8.28404 19H19.7126C20.0915 19 20.4549 18.8683 20.7228 18.6339C20.9907 18.3995 21.1412 18.0815 21.1412 17.75V10.25C21.1412 9.91848 20.9907 9.60054 20.7228 9.36612C20.4549 9.1317 20.0915 9 19.7126 9Z" fill="white"/>
</g>
</svg>
