<svg width="80" height="60" viewBox="0 0 80 60" fill="none" xmlns="http://www.w3.org/2000/svg">
<mask id="mask0_412_1366" style="mask-type:alpha" maskUnits="userSpaceOnUse" x="0" y="0" width="80" height="60">
<rect width="80" height="60" fill="#D9D9D9"/>
</mask>
<g mask="url(#mask0_412_1366)">
<path d="M19.7928 38.6603C18.9748 38.6603 18.2892 38.3836 17.7359 37.8303C17.1827 37.277 16.906 36.5914 16.906 35.7735C16.906 34.9556 17.1827 34.27 17.7359 33.7167C18.2892 33.1634 18.9748 32.8868 19.7928 32.8868H60.2073C61.0252 32.8868 61.7108 33.1634 62.2641 33.7167C62.8174 34.27 63.094 34.9556 63.094 35.7735C63.094 36.5914 62.8174 37.277 62.2641 37.8303C61.7108 38.3836 61.0252 38.6603 60.2073 38.6603H19.7928ZM19.7928 27.1132C18.9748 27.1132 18.2892 26.8366 17.7359 26.2833C17.1827 25.73 16.906 25.0444 16.906 24.2265C16.906 23.4086 17.1827 22.723 17.7359 22.1697C18.2892 21.6164 18.9748 21.3397 19.7928 21.3397H60.2073C61.0252 21.3397 61.7108 21.6164 62.2641 22.1697C62.8174 22.723 63.094 23.4086 63.094 24.2265C63.094 25.0444 62.8174 25.73 62.2641 26.2833C61.7108 26.8366 61.0252 27.1132 60.2073 27.1132H19.7928Z" fill="white"/>
</g>
</svg>
