<svg width="24" height="24" viewBox="0 0 24 24" fill="none" xmlns="http://www.w3.org/2000/svg">
<mask id="mask0_1002_2860" style="mask-type:alpha" maskUnits="userSpaceOnUse" x="0" y="0" width="24" height="24">
<rect x="24" width="24" height="24" transform="rotate(90 24 0)" fill="#D9D9D9"/>
</mask>
<g mask="url(#mask0_1002_2860)">
<path d="M12 13.0115L18.296 6.46183C18.5919 6.15394 18.9686 6 19.426 6C19.8834 6 20.2601 6.15394 20.5561 6.46183C20.852 6.76972 21 7.16158 21 7.6374C21 8.11323 20.852 8.50509 20.5561 8.81298L13.13 16.5382C12.9686 16.7061 12.7937 16.8251 12.6054 16.895C12.417 16.965 12.2152 17 12 17C11.7848 17 11.583 16.965 11.3946 16.895C11.2063 16.8251 11.0314 16.7061 10.87 16.5382L3.44395 8.81298C3.14798 8.50509 3 8.11323 3 7.6374C3 7.16158 3.14798 6.76972 3.44395 6.46183C3.73991 6.15394 4.11659 6 4.57399 6C5.03139 6 5.40807 6.15394 5.70404 6.46183L12 13.0115Z" fill="#676767"/>
</g>
</svg>
