<svg width="40" height="40" viewBox="0 0 40 40" fill="none" xmlns="http://www.w3.org/2000/svg">
<rect x="0.152344" width="39.8477" height="40" rx="19.9239" fill="#262626"/>
<path d="M15.092 16.9754V28.0356H11.2265V16.9754H15.092ZM15.338 13.5602C15.3458 14.1034 15.1487 14.5572 14.7465 14.9218C14.3443 15.2864 13.8152 15.4687 13.1593 15.4687H13.1358C12.4955 15.4687 11.9801 15.2864 11.5896 14.9218C11.1991 14.5572 11.0039 14.1034 11.0039 13.5602C11.0039 13.0096 11.205 12.5539 11.6072 12.193C12.0093 11.8321 12.5345 11.6517 13.1827 11.6517C13.8309 11.6517 14.3502 11.8321 14.7406 12.193C15.1311 12.5539 15.3302 13.0096 15.338 13.5602ZM28.9964 21.6964V28.0356H25.1425V22.1205C25.1425 21.3392 24.9844 20.7272 24.6681 20.2845C24.3519 19.8418 23.8579 19.6205 23.1863 19.6205C22.6943 19.6205 22.2824 19.7488 21.9505 20.0055C21.6186 20.2622 21.3707 20.5803 21.2067 20.9598C21.1208 21.183 21.0778 21.4843 21.0778 21.8638V28.0356H17.224C17.2396 25.0669 17.2474 22.6599 17.2474 20.8147C17.2474 18.9694 17.2435 17.8682 17.2357 17.5111L17.224 16.9754H21.0778V18.5825H21.0544C21.2106 18.3444 21.3707 18.1361 21.5347 17.9575C21.6987 17.7789 21.9193 17.5855 22.1965 17.3772C22.4737 17.1688 22.8134 17.007 23.2156 16.8917C23.6178 16.7763 24.0649 16.7187 24.5569 16.7187C25.8922 16.7187 26.966 17.1409 27.7782 17.9854C28.5903 18.8299 28.9964 20.0669 28.9964 21.6964Z" fill="white"/>
</svg>
