<svg width="45" height="40" viewBox="0 0 45 40" fill="none" xmlns="http://www.w3.org/2000/svg">
<rect x="0.0507812" width="40" height="40" rx="20" fill="#262626"/>
<path d="M29.4956 14.5538C28.9857 15.2829 28.3693 15.9042 27.6462 16.4176C27.6538 16.5218 27.6577 16.678 27.6577 16.8864C27.6577 17.8536 27.513 18.819 27.2238 19.7826C26.9346 20.7461 26.4951 21.6706 25.9053 22.556C25.3155 23.4414 24.6134 24.2245 23.799 24.9053C22.9847 25.5861 22.0029 26.1293 20.8537 26.5348C19.7045 26.9403 18.4753 27.1431 17.1663 27.1431C15.1038 27.1431 13.2163 26.6036 11.5039 25.5248C11.7703 25.5545 12.0671 25.5694 12.3944 25.5694C14.1068 25.5694 15.6327 25.056 16.9722 24.0292C16.1731 24.0143 15.4577 23.7744 14.826 23.3094C14.1943 22.8443 13.7605 22.251 13.5246 21.5292C13.7757 21.5664 14.0078 21.585 14.2209 21.585C14.5482 21.585 14.8716 21.5441 15.1913 21.4623C14.3389 21.2911 13.633 20.8763 13.0736 20.2178C12.5142 19.5594 12.2345 18.7949 12.2345 17.9243V17.8797C12.7521 18.1624 13.3076 18.3149 13.9013 18.3373C13.399 18.0099 12.9994 17.5821 12.7026 17.0538C12.4058 16.5255 12.2574 15.9526 12.2574 15.335C12.2574 14.6803 12.4248 14.0739 12.7597 13.5158C13.6806 14.6245 14.8012 15.5117 16.1217 16.1777C17.4422 16.8436 18.8559 17.2138 20.3628 17.2882C20.3019 17.0054 20.2715 16.7301 20.2715 16.4623C20.2715 15.4652 20.6311 14.6152 21.3503 13.912C22.0695 13.2089 22.939 12.8574 23.9588 12.8574C25.0243 12.8574 25.9224 13.2368 26.653 13.9957C27.4826 13.8395 28.2627 13.5493 28.9933 13.1252C28.7117 13.9809 28.1714 14.6431 27.3723 15.1118C28.08 15.0374 28.7878 14.8514 29.4956 14.5538Z" fill="white"/>
</svg>
