<svg width="45" height="40" viewBox="0 0 45 40" fill="none" xmlns="http://www.w3.org/2000/svg">
<rect x="0.101562" width="40" height="40" rx="20" fill="#262626"/>
<g clip-path="url(#clip0_336_2253)">
<path d="M17.9358 22.5893L23.3376 19.7991L17.9358 16.9754V22.5893ZM20.0006 12.9687C21.2506 12.9687 22.4578 12.9855 23.6222 13.019C24.7866 13.0525 25.6404 13.0878 26.1836 13.125L26.9983 13.1696C27.0058 13.1696 27.069 13.1752 27.1881 13.1864C27.3071 13.1975 27.3927 13.2087 27.4448 13.2199C27.4968 13.231 27.5843 13.2478 27.707 13.2701C27.8298 13.2924 27.9358 13.3222 28.0251 13.3594C28.1144 13.3966 28.2186 13.4449 28.3376 13.5045C28.4567 13.564 28.572 13.6365 28.6836 13.7221C28.7952 13.8077 28.9031 13.9062 29.0073 14.0179C29.0519 14.0625 29.1096 14.1313 29.1802 14.2243C29.2509 14.3173 29.3588 14.535 29.5039 14.8772C29.649 15.2195 29.7476 15.5952 29.7997 16.0045C29.8592 16.4807 29.9057 16.9885 29.9392 17.5279C29.9727 18.0673 29.9931 18.4896 30.0006 18.7946V19.2411V20.7589C30.008 21.8378 29.941 22.9167 29.7997 23.9955C29.7476 24.4048 29.6546 24.7749 29.5206 25.106C29.3867 25.4371 29.2677 25.6659 29.1635 25.7924L29.0073 25.9821C28.9031 26.0937 28.7952 26.1923 28.6836 26.2779C28.572 26.3635 28.4567 26.4342 28.3376 26.49C28.2186 26.5458 28.1144 26.5923 28.0251 26.6295C27.9358 26.6667 27.8298 26.6964 27.707 26.7187C27.5843 26.7411 27.495 26.7578 27.4392 26.769C27.3834 26.7801 27.2978 26.7913 27.1825 26.8025C27.0672 26.8136 27.0058 26.8192 26.9983 26.8192C25.1308 26.9606 22.7982 27.0312 20.0006 27.0312C18.4604 27.0164 17.123 26.9922 15.9883 26.9587C14.8536 26.9252 14.1077 26.8973 13.7506 26.875L13.2037 26.8304L12.8019 26.7857C12.534 26.7485 12.3313 26.7113 12.1936 26.6741C12.056 26.6369 11.8663 26.5588 11.6244 26.4397C11.3826 26.3207 11.1724 26.1682 10.9939 25.9821C10.9492 25.9375 10.8916 25.8687 10.8209 25.7757C10.7502 25.6827 10.6423 25.465 10.4972 25.1228C10.3521 24.7805 10.2535 24.4048 10.2015 23.9955C10.1419 23.5193 10.0954 23.0115 10.0619 22.4721C10.0285 21.9327 10.008 21.5104 10.0006 21.2054V20.7589V19.2411C9.99312 18.1622 10.0601 17.0833 10.2015 16.0045C10.2535 15.5952 10.3465 15.2251 10.4805 14.894C10.6144 14.5629 10.7334 14.3341 10.8376 14.2076L10.9939 14.0179C11.098 13.9062 11.2059 13.8077 11.3175 13.7221C11.4291 13.6365 11.5445 13.564 11.6635 13.5045C11.7826 13.4449 11.8867 13.3966 11.976 13.3594C12.0653 13.3222 12.1713 13.2924 12.2941 13.2701C12.4169 13.2478 12.5043 13.231 12.5564 13.2199C12.6084 13.2087 12.694 13.1975 12.8131 13.1864C12.9321 13.1752 12.9953 13.1696 13.0028 13.1696C14.8703 13.0357 17.2029 12.9687 20.0006 12.9687Z" fill="white"/>
</g>
<defs>
<clipPath id="clip0_336_2253">
<rect width="20" height="20" fill="white" transform="matrix(1 0 0 -1 10 30)"/>
</clipPath>
</defs>
</svg>
