<svg width="132" height="133" viewBox="0 0 132 133" fill="none" xmlns="http://www.w3.org/2000/svg">
<g clip-path="url(#clip0_351_1418)">
<path d="M121.243 60.9382C121.243 59.1967 119.829 57.785 118.086 57.785C116.342 57.785 114.929 59.1967 114.929 60.9382C114.929 90.8447 90.5643 115.18 60.6214 115.18C30.6785 115.18 6.31413 90.8447 6.31413 60.9382C6.31413 31.0317 30.6728 6.69684 60.6214 6.69684C70.9326 6.69684 80.9656 9.5955 89.6374 15.0804C91.1088 16.0119 93.061 15.5722 93.9936 14.1026C94.9262 12.633 94.486 10.6832 93.0146 9.75172C83.3349 3.62461 72.1317 0.390381 60.6214 0.390381C27.1971 0.390381 0 27.5487 0 60.9382C0 81.2751 10.091 99.3035 25.5404 110.291L13.6304 127.11C12.6225 128.533 12.9642 130.5 14.3835 131.501C14.9396 131.895 15.571 132.08 16.2024 132.08C17.193 132.08 18.1661 131.617 18.7802 130.749L30.8697 113.675C39.6631 118.645 49.8121 121.486 60.6156 121.486C71.4191 121.486 81.5681 118.645 90.3615 113.675L102.451 130.749C103.065 131.617 104.038 132.08 105.029 132.08C105.66 132.08 106.297 131.895 106.848 131.501C108.273 130.494 108.609 128.527 107.601 127.11L95.6909 110.291C111.134 99.3035 121.231 81.2751 121.231 60.9382H121.243Z" fill="#828282"/>
<path d="M81.7716 28.5901C82.6057 27.0627 82.038 25.1476 80.5029 24.3144C74.4379 21.0223 67.5619 19.2866 60.6221 19.2866C37.6248 19.2866 18.9199 37.9746 18.9199 60.9382C18.9199 83.9018 37.6306 102.59 60.6221 102.59C83.6137 102.59 102.324 83.9018 102.324 60.9382C102.324 59.1967 100.911 57.785 99.1673 57.785C97.4236 57.785 96.0102 59.1967 96.0102 60.9382C96.0102 80.4304 80.1322 96.2891 60.6163 96.2891C41.1005 96.2891 25.2225 80.4304 25.2225 60.9382C25.2225 41.446 41.1005 25.5873 60.6163 25.5873C66.5076 25.5873 72.3409 27.0627 77.4849 29.8514C79.02 30.6845 80.9316 30.1175 81.7658 28.5843L81.7716 28.5901Z" fill="#828282"/>
<path d="M60.6206 44.2925C63.6503 44.2925 66.6162 45.1141 69.1997 46.6647C70.6943 47.5615 72.6349 47.0813 73.5327 45.5886C74.4306 44.0958 73.9498 42.1576 72.4553 41.2608C68.8927 39.1201 64.803 37.9861 60.6264 37.9861C47.9576 37.9861 37.6465 48.2789 37.6465 60.9381C37.6465 73.5974 47.9518 83.8902 60.6264 83.8902C73.301 83.8902 83.6064 73.5974 83.6064 60.9381C83.6064 59.1966 82.1929 57.7849 80.4493 57.7849C78.7057 57.7849 77.2922 59.1966 77.2922 60.9381C77.2922 70.1143 69.8138 77.5837 60.6264 77.5837C51.4391 77.5837 43.9606 70.1143 43.9606 60.9381C43.9606 51.7619 51.4391 44.2925 60.6264 44.2925H60.6206Z" fill="#828282"/>
<path d="M131.954 32.484C131.734 31.1938 130.743 30.1697 129.451 29.9151L118.127 27.6818L119.986 15.283C120.166 14.0853 119.638 12.8877 118.636 12.205C117.628 11.5222 116.319 11.4817 115.271 12.095L91.3291 26.085C90.5066 26.5652 89.9447 27.3925 89.7999 28.3356L87.7724 41.8222L59.0518 58.1959C57.5399 59.0579 57.0127 60.9846 57.8759 62.4947C58.4551 63.513 59.521 64.0857 60.6216 64.0857C61.1546 64.0857 61.6875 63.9527 62.1799 63.6692L90.7093 47.4054L104.282 50.0842C104.485 50.1247 104.687 50.1421 104.896 50.1421C105.452 50.1421 106.002 49.9975 106.489 49.7082L130.43 35.7182C131.56 35.0587 132.168 33.7627 131.948 32.4724L131.954 32.484ZM95.8243 30.7656L112.768 20.8662L111.668 28.2141L94.7585 37.8532L95.8243 30.7714V30.7656ZM104.34 43.6736L99.0915 42.638L115.103 33.5081L120.056 34.4859L104.334 43.6736H104.34Z" fill="#828282"/>
</g>
<defs>
<clipPath id="clip0_351_1418">
<rect width="132" height="131.695" fill="white" transform="translate(0 0.390381)"/>
</clipPath>
</defs>
</svg>
