<svg width="105" height="119" viewBox="0 0 105 119" fill="none" xmlns="http://www.w3.org/2000/svg">
<g clip-path="url(#clip0_351_1442)">
<path d="M104.98 53.9134C104.98 53.8637 104.98 53.8139 104.98 53.7642C104.98 53.6648 104.98 53.5654 104.98 53.4759C104.98 53.4262 104.97 53.3665 104.96 53.3168C104.95 53.2174 104.93 53.1179 104.9 53.0284C104.9 52.9986 104.9 52.9688 104.88 52.9389C104.88 52.9091 104.86 52.8892 104.85 52.8693C104.82 52.7799 104.78 52.6904 104.74 52.6108C104.711 52.5512 104.691 52.5014 104.651 52.4418C104.611 52.3722 104.561 52.3125 104.511 52.2429C104.471 52.1833 104.421 52.1236 104.371 52.0639C104.371 52.054 104.351 52.0441 104.341 52.0341L89.3086 35.8963C89.0992 35.6775 88.8598 35.4886 88.5805 35.3594L72.3905 27.6733C72.0713 27.5241 71.7122 27.4446 71.3631 27.4446H33.5966C33.2375 27.4446 32.8884 27.5241 32.5692 27.6733L16.3792 35.3594C16.1099 35.4886 15.8605 35.6676 15.651 35.8963L0.638219 52.0142C0.638219 52.0142 0.598318 52.0639 0.578367 52.0938C0.528491 52.1435 0.48859 52.2031 0.448688 52.2628C0.398812 52.3324 0.348935 52.412 0.309034 52.4816C0.279108 52.5313 0.249182 52.581 0.229232 52.6406C0.179355 52.7401 0.149429 52.8395 0.119503 52.9389C0.119503 52.9688 0.0995529 52.9887 0.0895776 53.0185C0.0895776 53.0284 0.0895776 53.0483 0.0895776 53.0583C0.0596517 53.1875 0.0397011 53.3068 0.0297258 53.4361C0.0297258 53.456 0.0297258 53.4858 0.0297258 53.5057C0.00977518 53.8139 0.0596517 54.1122 0.159405 54.4105C0.159405 54.4105 0.159405 54.4205 0.159405 54.4304C0.209281 54.5597 0.269133 54.6989 0.33896 54.8182C0.348935 54.8381 0.368886 54.858 0.378861 54.8878C0.428738 54.9674 0.478614 55.0568 0.538466 55.1364L50.6444 117.749C50.6444 117.749 50.6444 117.749 50.6544 117.759C50.6843 117.789 50.7042 117.828 50.7342 117.858C50.7541 117.878 50.7741 117.898 50.794 117.918C50.8638 117.987 50.9437 118.057 51.0135 118.127C51.0135 118.127 51.0334 118.137 51.0334 118.146C51.0334 118.146 51.0334 118.146 51.0434 118.146C51.0733 118.166 51.1033 118.196 51.1432 118.216C51.2429 118.286 51.3427 118.345 51.4524 118.395C51.4524 118.395 51.4723 118.405 51.4823 118.415C51.4823 118.415 51.4823 118.415 51.4923 118.415C51.4923 118.415 51.5023 118.415 51.5122 118.425C51.6519 118.485 51.7916 118.534 51.9312 118.564C51.9412 118.564 51.9611 118.564 51.9711 118.574C52.001 118.574 52.031 118.574 52.0509 118.584C52.1906 118.614 52.3402 118.634 52.4898 118.634C52.6395 118.634 52.7791 118.614 52.9287 118.584C52.9587 118.584 52.9786 118.584 53.0085 118.574C53.0285 118.574 53.0484 118.564 53.0684 118.554C53.208 118.514 53.3477 118.475 53.4774 118.415C53.4774 118.415 53.4874 118.415 53.4973 118.405C53.5273 118.395 53.5572 118.375 53.5771 118.365C53.6669 118.315 53.7567 118.266 53.8465 118.206C53.8764 118.186 53.9063 118.166 53.9362 118.146C53.9562 118.127 53.9861 118.117 54.0061 118.097C54.0759 118.037 54.1457 117.977 54.2056 117.908C54.2255 117.888 54.2455 117.868 54.2654 117.848C54.2854 117.828 54.3053 117.798 54.3253 117.769C54.3353 117.759 54.3552 117.749 54.3652 117.729L104.471 55.1165C104.671 54.8679 104.8 54.5995 104.89 54.3211C104.89 54.2912 104.9 54.2514 104.91 54.2216C104.94 54.1122 104.96 54.0029 104.97 53.8935L104.98 53.9134ZM17.2471 41.2159L30.4045 47.4602L26.4244 57.5824L6.86281 52.3622L17.2471 41.2159ZM78.9643 58.5668L74.5951 47.4702L87.7525 41.2259L98.2565 52.5114L78.9543 58.5767L78.9643 58.5668ZM69.9466 48.733L74.0365 59.1236H32.2001L31.0828 58.8253L35.053 48.733H69.9366H69.9466ZM73.827 63.9063L52.4998 110.5L31.1227 63.787L31.2624 63.8267C31.4619 63.8765 31.6714 63.9063 31.8809 63.9063H73.827ZM25.1575 62.1961C25.1874 62.3054 25.2174 62.4049 25.2672 62.5043L42.2452 99.6024L8.80799 57.831L25.1575 62.1961ZM79.2934 63.4787L95.8325 58.2784L62.7544 99.6223L79.2934 63.4787ZM70.8444 32.2173L83.2038 38.0838L70.8444 43.9503H34.1552L21.7958 38.0838L34.1552 32.2173H70.8444Z" fill="#828282"/>
<path d="M52.4995 18.5752C53.8263 18.5752 54.8936 17.5013 54.8936 16.1888V3.31239C54.8936 1.98995 53.8163 0.926025 52.4995 0.926025C51.1828 0.926025 50.1055 1.99989 50.1055 3.31239V16.1789C50.1055 17.5013 51.1828 18.5653 52.4995 18.5653V18.5752Z" fill="#828282"/>
<path d="M77.3975 22.99C77.7965 23.2485 78.2553 23.3778 78.7042 23.3778C79.4923 23.3778 80.2604 22.99 80.7192 22.294L88.0411 11.0581C88.7593 9.95444 88.4501 8.47291 87.3329 7.74705C86.2256 7.03114 84.7393 7.33938 84.0111 8.45302L76.6892 19.6888C75.971 20.7925 76.2802 22.2741 77.3975 22.9999V22.99Z" fill="#828282"/>
<path d="M24.2801 22.2941C24.7389 23 25.507 23.3779 26.2951 23.3779C26.744 23.3779 27.1928 23.2486 27.6018 22.9901C28.7091 22.2742 29.0283 20.7926 28.3101 19.679L20.9882 8.4432C20.27 7.3395 18.7837 7.02132 17.6664 7.73723C16.5592 8.45314 16.24 9.93468 16.9582 11.0483L24.2801 22.2841V22.2941Z" fill="#828282"/>
</g>
<defs>
<clipPath id="clip0_351_1442">
<rect width="105" height="117.727" fill="white" transform="translate(0 0.926025)"/>
</clipPath>
</defs>
</svg>
