<svg width="116" height="127" viewBox="0 0 116 127" fill="none" xmlns="http://www.w3.org/2000/svg">
<g clip-path="url(#clip0_351_1427)">
<path d="M84.4842 30.7083C76.9754 23.418 67.0529 19.5642 56.5842 19.8721C36.7692 20.4581 20.4304 36.4095 19.3875 56.1848C18.732 68.5704 24.1253 80.5787 33.8093 88.2961C38.1696 91.7724 40.7719 97.3445 40.7719 103.215V103.731C40.7719 105.568 42.2618 107.068 44.1092 107.068H71.3735C73.211 107.068 74.7108 105.578 74.7108 103.731V103.215C74.7108 97.3842 77.4223 91.7923 82.16 87.8889C91.0495 80.5588 96.1448 69.7524 96.1448 58.2408C96.1448 47.7721 92.003 37.9887 84.4941 30.6884L84.4842 30.7083ZM48.4695 70.8251H44.4171C42.7783 70.8251 41.4374 69.4842 41.4374 67.8454C41.4374 66.2065 42.7783 64.8657 44.4171 64.8657H45.4898C47.1286 64.8657 48.4695 66.2065 48.4695 67.8454V70.8251ZM60.8551 100.404H55.1341V77.4897H60.8551V100.404ZM77.909 82.7638C72.3965 87.3128 68.9401 93.6298 68.1852 100.404H67.5198V77.4897H71.5722C76.8959 77.4897 81.2165 73.1592 81.2165 67.8454C81.2165 62.5316 76.886 58.2011 71.5722 58.2011H70.4995C65.1757 58.2011 60.8551 62.5316 60.8551 67.8454V70.8251H55.1341V67.8454C55.1341 62.5216 50.8036 58.2011 45.4898 58.2011H44.4171C39.0933 58.2011 34.7728 62.5316 34.7728 67.8454C34.7728 73.1592 39.1033 77.4897 44.4171 77.4897H48.4695V100.404H47.2975C46.5823 93.5205 43.2749 87.3128 37.971 83.0915C29.9655 76.705 25.5059 66.7826 26.0522 56.5424C26.9163 40.2036 40.4143 27.0234 56.7829 26.5466C65.4439 26.2884 73.6381 29.4668 79.8458 35.4957C86.0535 41.5246 89.4703 49.6096 89.4703 58.2607C89.4703 67.7659 85.2589 76.6951 77.909 82.7538V82.7638ZM67.5297 70.8251V67.8454C67.5297 66.2065 68.8706 64.8657 70.5094 64.8657H71.5821C73.2209 64.8657 74.5618 66.2065 74.5618 67.8454C74.5618 69.4842 73.2209 70.8251 71.5821 70.8251H67.5297Z" fill="#828282"/>
<path d="M69.1089 110.336H46.8802C45.0428 110.336 43.543 111.826 43.543 113.673C43.543 115.521 45.0328 117.01 46.8802 117.01H69.1089C70.9463 117.01 72.4461 115.521 72.4461 113.673C72.4461 111.826 70.9563 110.336 69.1089 110.336Z" fill="#828282"/>
<path d="M64.4404 120.258H51.5482C49.7107 120.258 48.2109 121.748 48.2109 123.596C48.2109 125.443 49.7008 126.933 51.5482 126.933H64.4404C66.2779 126.933 67.7777 125.443 67.7777 123.596C67.7777 121.748 66.2878 120.258 64.4404 120.258Z" fill="#828282"/>
<path d="M57.9955 15.1541C59.833 15.1541 61.3327 13.6643 61.3327 11.8169V3.40417C61.3327 1.56668 59.8429 0.0668945 57.9955 0.0668945C56.1481 0.0668945 54.6582 1.55675 54.6582 3.40417V11.8169C54.6582 13.6544 56.1481 15.1541 57.9955 15.1541Z" fill="#828282"/>
<path d="M91.6361 27.3709C92.5499 27.3709 93.4537 27.0034 94.1192 26.2684L99.7508 20.011C100.982 18.6404 100.873 16.5347 99.5025 15.3031C98.1319 14.0715 96.0262 14.1807 94.7946 15.5514L89.1629 21.8088C87.9313 23.1794 88.0406 25.2851 89.4113 26.5167C90.0469 27.0928 90.8514 27.3709 91.646 27.3709H91.6361Z" fill="#828282"/>
<path d="M112.662 54.387H104.249C102.412 54.387 100.912 55.8768 100.912 57.7242C100.912 59.5717 102.402 61.0615 104.249 61.0615H112.662C114.5 61.0615 115.999 59.5717 115.999 57.7242C115.999 55.8768 114.51 54.387 112.662 54.387Z" fill="#828282"/>
<path d="M99.3443 92.5968L92.5307 87.6505C91.0409 86.5679 88.9551 86.8957 87.8725 88.3855C86.7898 89.8754 87.1176 91.9612 88.6074 93.0438L95.421 97.9901C96.017 98.4172 96.7023 98.6258 97.3777 98.6258C98.4107 98.6258 99.4238 98.149 100.079 97.2551C101.162 95.7653 100.834 93.6795 99.3443 92.5968Z" fill="#828282"/>
<path d="M21.8901 26.2684C22.5457 27.0034 23.4594 27.3709 24.3732 27.3709C25.1678 27.3709 25.9624 27.0928 26.608 26.5167C27.9787 25.2851 28.0879 23.1794 26.8563 21.8088L21.2247 15.5514C19.993 14.1807 17.8874 14.0715 16.5167 15.3031C15.1461 16.5347 15.0368 18.6404 16.2684 20.011L21.9001 26.2684H21.8901Z" fill="#828282"/>
<path d="M11.75 54.387H3.33727C1.49979 54.387 0 55.8768 0 57.7242C0 59.5717 1.48985 61.0615 3.33727 61.0615H11.75C13.5875 61.0615 15.0872 59.5717 15.0872 57.7242C15.0872 55.8768 13.5974 54.387 11.75 54.387Z" fill="#828282"/>
<path d="M23.4699 87.6405L16.6563 92.5868C15.1664 93.6695 14.8387 95.7552 15.9213 97.2451C16.5768 98.139 17.5899 98.6158 18.6229 98.6158C19.2983 98.6158 19.9935 98.4072 20.5796 97.9801L27.3932 93.0338C28.883 91.9512 29.2108 89.8654 28.1281 88.3755C27.0455 86.8857 24.9597 86.5579 23.4699 87.6405Z" fill="#828282"/>
</g>
<defs>
<clipPath id="clip0_351_1427">
<rect width="116" height="126.866" fill="white" transform="translate(0 0.0668945)"/>
</clipPath>
</defs>
</svg>
