<svg width="48" height="48" viewBox="0 0 48 48" fill="none" xmlns="http://www.w3.org/2000/svg">
<g clip-path="url(#clip0_1016_1220)">
<mask id="mask0_1016_1220" style="mask-type:luminance" maskUnits="userSpaceOnUse" x="0" y="0" width="48" height="48">
<path d="M48 0H0V48H48V0Z" fill="white"/>
</mask>
<g mask="url(#mask0_1016_1220)">
<g opacity="0.4">
<path d="M37.9798 23.3642C38.1799 22.5931 38.2811 21.8004 38.2802 21.007C38.2789 18.5676 37.3429 16.2937 35.6447 14.604C33.9567 12.9248 31.7002 12 29.2851 12C25.344 12.0025 21.9256 14.4738 20.7434 18.1615C19.7602 17.1918 18.4703 16.6592 17.0959 16.6592C15.6939 16.6599 14.3765 17.2177 13.3857 18.2298C12.3949 19.2418 11.8497 20.5868 11.8506 22.0172C11.8509 22.5134 11.918 23.0052 12.0503 23.4809C11.6078 23.3893 11.1578 23.3429 10.708 23.3429C8.91527 23.3439 7.23017 24.0572 5.96323 25.3513C4.69616 26.6455 3.99893 28.3436 4 30.1725C4.00242 33.9457 7.01317 36.994 10.7115 36.994H10.7154L37.2922 37C39.085 36.9989 40.77 36.2964 42.0369 35.0025C43.304 33.7084 44.0011 31.9941 44 30.1651C43.998 26.6283 41.4156 23.7219 37.9798 23.3642ZM33.4561 29.2879C33.2658 29.4553 33.0325 29.5373 32.7992 29.5373C32.5163 29.5373 32.214 29.4163 32.0149 29.1805L31.6142 28.7291V32.7308C31.6142 33.2987 31.1632 33.7589 30.6065 33.7589C30.0498 33.7589 29.5987 33.2987 29.5987 32.7308V28.7908L29.2885 29.1805C29.0893 29.4164 28.8159 29.5373 28.5329 29.5373C28.2998 29.5373 28.0711 29.4551 27.8808 29.2877C27.4592 28.9169 27.4152 28.2678 27.7786 27.8377L29.9066 25.3216C30.2702 24.8911 30.9073 24.8435 31.3284 25.2144C31.3574 25.2399 31.4256 25.3117 31.434 25.3216L33.5605 27.8377C33.9237 28.2678 33.8775 28.917 33.4561 29.2879Z" fill="#E67E22" stroke="#E67E22"/>
</g>
</g>
</g>
<defs>
<clipPath id="clip0_1016_1220">
<rect width="48" height="48" fill="white"/>
</clipPath>
</defs>
</svg>
