<svg width="48" height="48" viewBox="0 0 48 48" fill="none" xmlns="http://www.w3.org/2000/svg">
<path d="M40 22.4107V14.5047C40 13.028 38.8866 11.3532 37.5039 10.7949L27.5017 6.68884C25.257 5.77039 22.725 5.77039 20.4803 6.68884L10.4781 10.7949C9.11336 11.3532 8 13.028 8 14.5047V22.4107C8 31.2171 14.3749 39.4652 23.0841 41.8784C23.6767 42.0405 24.3232 42.0405 24.9158 41.8784C33.6251 39.4652 40 31.2171 40 22.4107ZM25.3468 25.5623V30.2986C25.3468 31.037 24.7362 31.6493 24 31.6493C23.2637 31.6493 22.6532 31.037 22.6532 30.2986V25.5623C20.8395 24.986 19.5107 23.2931 19.5107 21.2941C19.5107 18.8089 21.5218 16.7919 24 16.7919C26.4781 16.7919 28.4893 18.8089 28.4893 21.2941C28.4893 23.3111 27.1605 24.986 25.3468 25.5623Z" fill="#1ABC9C" stroke="#1ABC9C"/>
</svg>
