<svg width="48" height="48" viewBox="0 0 48 48" fill="none" xmlns="http://www.w3.org/2000/svg">
<path d="M17.2576 22.8615V35.7231H20.2627H23.2678V36.1077V36.4923H17.6237H11.9949V34.9846V33.4769H14.2525H16.5102V22.8923V12.2769H11.2475H6V22.8615V33.4462H8.25763H10.5153V35.7231V38H24H37.5V35.7385V33.4615H39.7577H42V22.8769V12.2769H36.7525H31.5051V22.8615V33.4462H33.7474H36.005V34.9538V36.4615H30.3763H24.7474V36.077V35.6923H27.7525H30.7577V22.8308V10H24H17.2576V22.8615ZM27.7525 13.0308V13.7846H26.6237H25.4949V13.0308V12.2769H26.6237H27.7525V13.0308ZM13.5051 15.3077V16.0615H12.6661H11.8271V15.3077V14.5538H12.6661H13.5051V15.3077ZM38.995 15.3077V16.0615H38.1559H37.317V15.3077V14.5538H38.1559H38.995V15.3077ZM27.7525 20.5538V21.3538H24H20.2475V20.5538V19.7538H24H27.7525V20.5538ZM13.5051 20.6V21.3538H11.2475H9.00513V20.6V19.8462H11.2628H13.5203V20.6H13.5051ZM38.995 20.6V21.3538H36.7372H34.4796V20.6V19.8462H36.7372H38.995V20.6ZM13.5051 22.8615V23.6153H11.2475H9.00513V22.8615V22.1077H11.2628H13.5203V22.8615H13.5051ZM27.7525 22.8615V23.6153H24H20.2475V22.8615V22.1077H24H27.7525V22.8615ZM38.995 22.8615V23.6153H36.7372H34.4796V22.8615V22.1077H36.7372H38.995V22.8615ZM13.5051 25.1385V25.8923H11.2475H9.00513V25.1385V24.3847H11.2628H13.5203V25.1385H13.5051ZM27.7525 25.1385V25.8923H24H20.2475V25.1385V24.3847H24H27.7525V25.1385ZM38.995 25.1385V25.8923H36.7372H34.4796V25.1385V24.3847H36.7372H38.995V25.1385ZM13.5051 27.4V28.1538H11.2475H9.00513V27.4V26.6462H11.2628H13.5203V27.4H13.5051ZM27.7525 27.4V28.1538H24H20.2475V27.4V26.6462H24H27.7525V27.4ZM38.995 27.4V28.1538H36.7372H34.4796V27.4V26.6462H36.7372H38.995V27.4ZM13.5051 29.6769V30.4308H11.2475H9.00513V29.6769V28.9231H11.2628H13.5203V29.6769H13.5051ZM27.7525 29.6769V30.4308H24H20.2475V29.6769V28.9231H24H27.7525V29.6769ZM38.995 29.6769V30.4308H36.7372H34.4796V29.6769V28.9231H36.7372H38.995V29.6769ZM27.7525 31.9385V32.6923H24H20.2475V31.9385V31.1846H24H27.7525V31.9385Z" fill="#3498DB"/>
</svg>
