<svg width="48" height="48" viewBox="0 0 48 48" fill="none" xmlns="http://www.w3.org/2000/svg">
<mask id="mask0_1016_1237" style="mask-type:luminance" maskUnits="userSpaceOnUse" x="8" y="4" width="32" height="40">
<path d="M40 4H8V43.3143H40V4Z" fill="white"/>
</mask>
<g mask="url(#mask0_1016_1237)">
<path d="M14.6342 38.1781V28.2494C14.6342 28.1095 15.0012 27.5356 15.1162 27.3838C15.7113 26.6128 16.4576 26.4057 17.4178 26.3406C21.7728 26.0428 26.4889 26.5615 30.8822 26.3583C31.7415 26.2736 33.3693 27.4252 33.3693 28.2494V38.1781C33.5529 38.2235 33.5792 38.1031 33.686 38.0242C38.0431 34.7607 39.32 27.8057 37.5529 22.9233C37.325 22.2942 36.1126 20.2316 36.0986 19.9122C36.0643 19.1845 36.8166 18.7763 37.4238 19.2436C37.7183 19.4705 38.3295 20.6713 38.5131 21.0598C43.0961 30.8011 36.5827 42.0608 25.7385 43.2183C13.3976 44.5375 4.29221 32.1065 9.49239 21.0598C9.79703 20.415 10.8379 18.1255 11.7375 19.3501C12.2397 20.0324 11.4389 20.7265 11.1424 21.3359C8.58067 26.5871 9.36531 34.3151 14.3174 38.0242C14.4243 38.1031 14.4506 38.2235 14.6342 38.1781Z" fill="#E74C3C"/>
<path d="M24.8407 11.4239V25.1091H23.1563V11.4239C18.9829 10.5976 19.2633 4.59708 23.4468 4.04101C28.3202 3.39425 29.6274 10.4182 24.8407 11.422V11.4239ZM23.8724 5.58305C20.9274 5.78611 21.1957 10.0455 24.05 9.99228C27.0434 9.93706 26.8417 5.37797 23.8724 5.58305Z" fill="#E74C3C"/>
<path d="M19.2665 25.1093H17.687V17.8546C16.2044 17.3735 14.8993 16.3362 14.6613 14.741C13.804 8.98682 23.1152 8.86458 22.2901 14.741C22.0662 16.3323 20.7511 17.3813 19.2644 17.8546V25.1093H19.2665ZM17.8705 11.9605C15.6941 12.3924 15.7304 15.9399 18.0662 16.2494C21.6991 16.7326 21.5155 11.2368 17.8705 11.9605Z" fill="#E74C3C"/>
<path d="M30.3194 17.8037V25.1096H28.7399V17.8549C27.3844 17.3738 26.2588 16.6658 25.8453 15.2322C24.7742 11.5191 29.1373 8.76037 32.052 11.2214C34.4888 13.278 33.3915 17.1292 30.3174 17.8037H30.3194ZM28.9234 11.9608C28.4515 12.0555 27.7475 12.6411 27.5256 13.0631C26.4323 15.1395 28.9517 17.2357 30.8821 15.8297C32.8125 14.4237 31.4227 11.4658 28.9255 11.9608H28.9234Z" fill="#E74C3C"/>
</g>
</svg>
