<svg width="48" height="48" viewBox="0 0 48 48" fill="none" xmlns="http://www.w3.org/2000/svg">
<mask id="mask0_1016_1228" style="mask-type:luminance" maskUnits="userSpaceOnUse" x="10" y="6" width="28" height="36">
<path d="M37.17 6H10.5V42H37.17V6Z" fill="white"/>
</mask>
<g mask="url(#mask0_1016_1228)">
<path d="M23.6709 41.9998L10.5309 35.1598C10.4409 34.7398 10.5909 34.8748 10.7634 34.7623C11.9559 33.9898 13.6884 33.4198 14.9409 32.6548L23.7684 37.1473L32.6184 32.6773L37.1634 34.8073L24.0234 42.0073H23.6634L23.6709 41.9998Z" fill="#2980B9"/>
<path d="M24.7493 6C27.8918 6.96 29.5268 9.465 28.4843 12.705C27.6893 15.1875 25.9118 17.58 24.6443 19.845C24.3743 20.025 24.1118 21.0375 23.7593 20.94C23.3018 20.82 19.5218 13.68 19.2143 12.705C18.1718 9.465 19.7843 6.945 22.9493 6H24.7493ZM23.2568 9.0975C21.0068 9.615 21.6368 13.485 24.2543 12.9825C26.7143 12.5025 26.1668 8.43 23.2568 9.0975Z" fill="#2980B9"/>
<path d="M19.3288 16.4473L20.6038 18.8548C20.5438 19.1098 17.9938 19.7023 18.3838 21.2623C19.1188 24.2173 28.5688 24.2248 29.3113 21.2623C29.7013 19.7023 27.1512 19.1098 27.0912 18.8548L28.4562 16.4473L37.1637 21.0223L23.7838 27.9148L10.5312 21.0298L19.3288 16.4473Z" fill="#2980B9"/>
<path d="M37.1709 27.78L36.7509 28.3575L23.9109 34.9425L10.9434 28.3575L10.5234 27.87L14.9409 25.6875L23.9259 30.12L32.7609 25.6875L37.1709 27.78Z" fill="#2980B9"/>
</g>
</svg>
