<svg width="48" height="48" viewBox="0 0 48 48" fill="none" xmlns="http://www.w3.org/2000/svg">
<mask id="mask0_1016_1248" style="mask-type:luminance" maskUnits="userSpaceOnUse" x="10" y="5" width="28" height="38">
<path d="M38 5H10V43H38V5Z" fill="white"/>
</mask>
<g mask="url(#mask0_1016_1248)">
<path d="M26.7248 7.41362C27.3196 7.49907 27.8493 7.7383 28.402 7.91734L30.8739 6.89682C31.1249 6.81949 31.3033 6.94436 31.494 7.05606C32.0701 7.39426 32.9479 8.08542 33.3873 8.54045C33.548 8.70668 33.7717 8.85664 33.6866 9.09286L32.5115 11.0844L32.509 11.1795L33.1822 12.4757L35.8753 13.178C36.0872 13.2353 36.0963 13.4371 36.1293 13.5913C36.2426 14.124 36.2669 14.8249 36.234 15.366C36.222 15.5582 36.179 16.1681 36.0178 16.2736C35.9251 16.3348 35.1974 16.5307 35.0602 16.5431L30.5903 16.523C30.5182 16.4859 30.4766 16.4333 30.4431 16.3715C30.15 15.8244 30.4053 15.0212 30.3522 14.3962C30.0314 10.6287 24.6149 8.53232 20.6605 10.5061C18.6467 11.5112 17.7311 13.0385 17.822 14.9404C17.8406 15.3324 18.0257 15.9436 17.9912 16.293C17.9774 16.4353 17.845 16.5621 17.6594 16.5454C15.934 16.4449 14 16.6707 12.2993 16.5447C12.0254 16.5245 11.967 16.4596 11.9068 16.2435C11.7749 15.7734 11.717 14.9571 11.7524 14.475C11.7663 14.2868 11.847 13.6864 11.9278 13.5372C11.9646 13.4691 12.1114 13.4289 12.1927 13.4007C12.5771 13.2674 14.6378 12.8236 14.7597 12.6929C14.8964 12.42 14.9796 12.1301 15.1106 11.8556C15.2316 11.6025 15.3946 11.3705 15.5222 11.1207L14.229 9.22463C14.1319 9.03913 14.1515 8.98885 14.2864 8.8304C14.645 8.40824 15.7111 7.58294 16.2236 7.26595C16.3996 7.15734 16.598 6.98881 16.8337 7.04016L19.4547 8.01817L21.0296 7.4403C21.392 6.78547 21.5359 5.96325 21.8988 5.32114C22.0332 5.08342 22.2426 5.10118 22.5395 5.06601C23.215 4.98559 24.2837 4.98718 24.974 5.02076C25.2164 5.03278 25.6534 5.04162 25.7815 5.21828L26.7254 7.41247L26.7248 7.41362Z" fill="#FFBA4B"/>
<path d="M20.878 26.6328V13.5283L20.2871 13.9508L19.4476 13.2438L21.524 11.5576L23.5588 13.1986C23.6057 13.2318 23.6114 13.2507 23.5827 13.296C23.5565 13.3373 22.8173 13.9427 22.7604 13.9508L22.2173 13.5472L22.1231 13.5855L22.0978 27.6379H20.9503L20.8876 27.7253L20.9264 29.0682H22.9583C22.9717 29.0682 23.074 29.1613 23.1008 29.1849L23.1046 42.7947C23.064 42.9137 22.7704 42.9377 22.6256 42.9474C21.3672 43.0293 19.6545 42.9767 18.3665 42.9482C18.1906 42.9443 17.6857 42.95 17.5667 42.8994C17.4309 42.8419 17.4065 42.7332 17.3888 42.6172C17.4209 38.4075 17.3477 34.1639 17.3869 29.9782C17.3884 29.8069 17.3094 29.0682 17.604 29.0682H19.6359V26.6328H20.878Z" fill="#FFBA4B"/>
<path d="M25.0629 24.7386C24.9931 24.7352 24.9171 24.7285 24.8468 24.722L24.8057 24.6447L24.7995 17.7031L24.2037 18.1276C24.1492 18.1125 23.4129 17.5121 23.3867 17.4708C23.3675 17.441 23.3547 17.4232 23.3867 17.3943L25.4454 15.7324L27.5218 17.4186L26.6823 18.1256L26.0918 17.7031V23.7335H28.3385V29.0681H30.3704C30.5287 29.0681 30.577 29.2962 30.5875 29.3951C30.7132 30.6008 30.5856 32.1069 30.5875 33.3377C30.5932 36.4665 30.5875 39.5962 30.575 42.7246C30.5291 42.8692 30.3919 42.9229 30.2193 42.9431C28.6468 42.8801 26.9572 43.0346 25.3957 42.9473C25.1403 42.933 24.8095 42.9272 24.8459 42.6574L24.8726 29.1849C24.8994 29.1613 25.0017 29.0681 25.0151 29.0681H27.0231L27.0948 29.0102V24.7386C26.4265 24.7154 25.728 24.7699 25.0629 24.7386Z" fill="#FFBA4B"/>
<path d="M28.6296 20.9506C28.4628 21.0086 28.153 21.4057 27.9937 21.3716L27.1484 20.6994L29.2684 19.0205L31.3539 20.6994L30.5087 21.3716C30.3743 21.4002 30.0779 21.0874 29.9823 21.0001C29.9535 20.9738 29.9856 20.9267 29.8727 20.9506V22.5742H35.7535V29.0105L35.8252 29.0685H37.8332C37.8466 29.0685 37.9489 29.1616 37.9757 29.1852L38.0025 42.6577C38.0302 42.9168 37.7577 42.933 37.5005 42.9477C36.1656 43.0242 34.1518 43.0126 32.8093 42.9461C32.5965 42.9357 32.3307 42.9334 32.2733 42.725L32.2613 29.3955C32.2447 29.2969 32.3441 29.0685 32.4785 29.0685H34.5104V23.5793H28.6296V20.9506Z" fill="#FFBA4B"/>
<path d="M17.293 22.6515L16.695 23.108C16.4965 22.9077 16.0691 22.6781 15.9037 22.4794C15.8735 22.4434 15.8416 22.4175 15.8641 22.3696L17.8974 20.7217L20.015 22.406L19.1333 23.106L18.5367 22.6518V26.7494H13.4687V29.0688H15.5006C15.6087 29.0688 15.7512 29.2625 15.7181 29.3568L15.6795 42.7817C15.5991 42.9367 15.186 42.9383 14.9771 42.9483C13.7082 43.009 11.7858 43.023 10.5268 42.948C10.382 42.9395 10.0411 42.9174 10 42.7953L10.0039 29.1855C10.0306 29.1619 10.1329 29.0688 10.1464 29.0688H12.1544L12.2261 29.0108V25.7443H17.294L17.293 22.6515Z" fill="#FFBA4B"/>
</g>
</svg>
