<svg width="48" height="46" viewBox="0 0 48 46" fill="none" xmlns="http://www.w3.org/2000/svg">
<mask id="mask0_1016_1290" style="mask-type:luminance" maskUnits="userSpaceOnUse" x="6" y="6" width="36" height="34">
<path d="M42 6H6V40H42V6Z" fill="white"/>
</mask>
<g mask="url(#mask0_1016_1290)">
<path d="M10.8189 28.5773C6.47706 27.9225 4.55396 22.2831 7.22368 18.8995C8.48243 17.3065 10.0518 16.6677 12.0674 16.4062C10.2821 6.65655 23.861 1.80369 28.6184 10.6091C32.9829 8.55697 37.2981 12.1223 35.6054 16.5978C41.4939 16.2944 44.3056 23.6565 39.7209 27.2817C39.2623 27.6431 37.6436 28.5773 37.1479 28.5773H31.4917C31.2058 27.5193 31.936 27.2179 32.2918 26.4593C33.7377 23.3771 30.7945 20.4945 27.5859 21.5904C28.3942 15.452 19.2066 15.5518 20.3851 21.5904C17.4953 20.6282 14.7659 22.7023 15.2575 25.6727C15.4447 26.8066 16.6767 27.4275 16.4792 28.5793C14.7433 28.3936 12.4891 28.8308 10.8231 28.5793L10.8189 28.5773Z" fill="#FF4457"/>
<path d="M29.4329 31.5716H34.2664C35.2083 31.5716 34.5913 35.8735 34.7765 36.62C34.8361 36.8616 36.5144 37.4165 35.8604 38.9018C34.5913 41.7903 30.2494 38.235 33.7604 36.628L33.7522 32.5676H28.713L28.4045 32.2682V26.6788C28.4045 26.4093 26.0309 25.2255 27.7792 23.6764C29.3609 22.2751 31.3868 24.2733 30.4387 25.8603C30.2412 26.1897 29.4329 26.5949 29.4329 26.6788V31.5695V31.5716Z" fill="#FF4457"/>
<path d="M14.211 32.5698L14.207 36.6202C17.7179 38.6544 12.6438 41.6427 11.9918 38.814C11.566 36.9675 12.9338 37.0913 13.1436 36.4246C13.5529 35.135 12.6767 32.7774 13.4892 31.5697H18.3226V26.3795C18.3226 26.2637 16.8623 26.078 17.1687 24.5768C17.5451 22.7243 20.4617 22.8022 20.5974 24.6867C20.7064 26.2038 19.351 26.5352 19.351 26.6789V32.2684L19.0425 32.5678H14.209L14.211 32.5698Z" fill="#FF4457"/>
<path d="M23.427 34.3261L23.4743 22.3307C19.5088 19.8334 25.5043 17.2044 25.673 20.5241C25.7326 21.6819 24.5993 21.9714 24.4965 22.4864C24.2045 23.9516 24.2723 32.2281 24.4862 33.881C24.5891 34.6714 25.7944 34.923 25.7306 36.0489C25.5434 39.3327 19.5664 36.7975 23.427 34.3261Z" fill="#FF4457"/>
</g>
</svg>
