<svg width="48" height="48" viewBox="0 0 48 48" fill="none" xmlns="http://www.w3.org/2000/svg">
<mask id="mask0_1016_1265" style="mask-type:luminance" maskUnits="userSpaceOnUse" x="8" y="8" width="32" height="32">
<path d="M40 8H8V40H40V8Z" fill="white"/>
</mask>
<g mask="url(#mask0_1016_1265)">
<path d="M32.2699 8C32.9106 8.12642 33.5195 8.46833 33.7975 9.01347C33.858 9.13135 34.0073 9.57355 34.0073 9.67969V11.5733H40V11.8933C39.9065 12.1819 39.9215 12.5083 39.8628 12.8113C39.3444 15.4746 36.9476 17.7565 34.0073 18.4003V20.4272L40 20.4806V20.8006L39.7908 21.9746C39.3221 23.8282 37.9862 25.4941 36.1601 26.4766C35.4822 26.8414 34.7492 27.0895 34.0073 27.3343V29.3346H40V29.6546L39.8514 30.6158C39.2898 33.3314 36.9782 35.4388 34.0348 36.2123C33.9324 37.6946 34.4395 39.458 32.3897 40.0011H15.6103C13.5576 39.4544 14.0658 37.6978 13.9651 36.2123C11.0032 35.4484 8.66226 33.3138 8.13904 30.571C8.08391 30.283 8.08271 29.9859 8 29.7079V29.3346H13.9927V27.3076C11.1537 26.6334 8.85045 24.5883 8.22115 22.0179L8.0006 20.8012V20.4811L13.9933 20.4278V18.4009C11.1315 17.7928 8.85045 15.672 8.20917 13.1207L8 11.9467V11.5733H13.9927V9.68022C13.9927 9.17776 14.5027 8.46566 15.0092 8.23843L15.7302 8H32.2699ZM23.4471 11.5882C21.22 11.8122 19.6762 13.8178 20.0597 15.7466C20.7034 18.9828 25.6616 19.7514 27.4638 16.8695C29.091 14.268 26.7584 11.2554 23.4471 11.5882ZM23.6281 20.4422C20.538 20.7148 18.9618 23.8448 20.7741 26.0979C22.3581 28.0667 25.7396 28.0352 27.2739 26.0339C29.1797 23.5482 27.0018 20.1446 23.6281 20.4422ZM23.5682 29.349C21.2512 29.5591 19.6546 31.5242 20.0717 33.5495C20.6177 36.2006 24.2532 37.35 26.5774 35.6005C29.5609 33.3549 27.4836 28.9932 23.5682 29.349Z" fill="#E74C3C"/>
</g>
</svg>
