<svg width="48" height="43" viewBox="0 0 48 43" fill="none" xmlns="http://www.w3.org/2000/svg">
<mask id="mask0_1016_1271" style="mask-type:luminance" maskUnits="userSpaceOnUse" x="6" y="6" width="36" height="33">
<path d="M42 6H6V38.25H42V6Z" fill="white"/>
</mask>
<g mask="url(#mask0_1016_1271)">
<path d="M24.9497 16.2246V37.0928H16.8125V16.2246H24.9497ZM20.1631 19.0964H18.3442V19.8622H20.1631V19.0964ZM23.418 19.0964H21.5991V19.8622H23.418V19.0964ZM20.1631 22.0639H18.3442V22.8297H20.1631V22.0639ZM23.418 22.0639H21.5991V22.8297H23.418V22.0639ZM20.1631 25.7014L20.0731 24.9778L18.3854 25.0256L18.3433 25.7014H20.1622H20.1631ZM23.418 25.7014L23.4027 25.0936L23.2744 24.9357H21.5991V25.7014H23.418ZM20.1631 27.9032H18.3442V28.669H20.1631V27.9032ZM23.418 27.9032H21.5991V28.669H23.418V27.9032ZM20.1631 30.8706H18.3442V31.6365H20.1631V30.8706ZM23.418 30.8706H21.5991V31.6365H23.418V30.8706ZM20.1631 33.8381H18.3442V34.5082H20.1631V33.8381ZM23.418 33.8381H21.5991V34.5082H23.418V33.8381Z" fill="#9B59B6"/>
<path d="M34.3278 23.5H28.8711V37.0931H34.3278V23.5Z" fill="#9B59B6"/>
<path d="M39.0247 26.082V37.0905H34.8125V26.2256L34.9561 26.082H39.0247Z" fill="#9B59B6"/>
<path d="M16.2371 20.627H13.6523V37.0918H16.2371V20.627Z" fill="#9B59B6"/>
<path d="M13.1731 28.5723H8.96094V37.0919H13.1731V28.5723Z" fill="#9B59B6"/>
<path d="M6.11268 38.1216C5.9193 37.9311 5.98057 37.5722 6.25245 37.4947L41.5622 37.4707C42.2811 37.5655 42.0428 38.3178 41.3708 38.2451H6.61048C6.46018 38.2337 6.22085 38.2289 6.11172 38.1216H6.11268Z" fill="#9B59B6"/>
<path d="M28.2997 28.5723H25.5234V37.0919H28.2997V28.5723Z" fill="#9B59B6"/>
<path d="M33.3741 18.8086H29.832V23.0205H33.3741V18.8086Z" fill="#9B59B6"/>
<path d="M23.6091 14.2129H18.1523V15.7445H23.6091V14.2129Z" fill="#9B59B6"/>
<path d="M22.4864 7.63613C22.6089 7.49254 23.5461 6.98137 23.7769 6.87032C26.0764 5.77043 28.6209 5.71204 30.9759 6.70089C31.3215 6.84639 32.3401 7.35852 32.5602 7.60549C32.8493 7.92905 32.744 8.36556 32.2769 8.2794C29.8118 6.62526 26.8728 6.2481 24.1473 7.527C23.7644 7.70696 22.6712 8.62019 22.406 8.08604C22.3313 7.93479 22.3849 7.75674 22.4874 7.63708L22.4864 7.63613Z" fill="#9B59B6"/>
<path d="M31.242 10.2642C30.9624 10.5505 29.9582 9.79327 29.5685 9.64107C28.056 9.04757 26.5693 9.11554 25.1056 9.82391C24.7839 9.97899 24.1655 10.6146 23.8878 10.2489C23.5049 9.74541 24.3321 9.35581 24.7265 9.1567C26.5865 8.21954 28.8582 8.25018 30.6609 9.31465C31.0265 9.53099 31.5809 9.7971 31.242 10.2642Z" fill="#9B59B6"/>
<path d="M27.1279 10.9854C27.7684 10.9117 29.8104 11.2123 29.9271 11.9685C30.0756 12.9315 28.8128 11.9762 28.4874 11.8709C27.7809 11.6411 27.1423 11.6747 26.4531 11.9379C26.0998 12.0729 25.669 12.5189 25.3311 12.3495L25.1339 12.0547C25.1042 11.756 25.7006 11.4574 25.9514 11.3406C26.3076 11.175 26.7373 11.0304 27.1279 10.9854Z" fill="#9B59B6"/>
<path d="M31.9372 18.3295L31.2614 18.2874L31.1953 13.8965C31.2364 13.6859 31.3131 13.6017 31.5284 13.5586L31.7984 13.6323C31.829 13.682 31.9382 13.7548 31.9382 13.7826V18.3295H31.9372Z" fill="#9B59B6"/>
<path d="M21.9792 12.1074V13.7348C21.2756 13.5825 20.4781 13.5835 19.7773 13.7348V12.1074H21.9792Z" fill="#9B59B6"/>
</g>
</svg>
