<svg width="48" height="48" viewBox="0 0 48 48" fill="none" xmlns="http://www.w3.org/2000/svg">
<mask id="mask0_1016_1258" style="mask-type:luminance" maskUnits="userSpaceOnUse" x="6" y="9" width="36" height="30">
<path d="M6 9H42V39H6V9Z" fill="white"/>
</mask>
<g mask="url(#mask0_1016_1258)">
<path d="M13.557 9.02758C12.7469 8.91044 12.2279 9.16778 11.7578 9.77476C11.0993 11.6472 10.0659 13.5604 9.47999 15.4381C9.16347 16.4541 9.25485 17.1445 10.3306 17.6566L28.8393 24.1806C30.3937 24.3421 32.9813 23.1273 34.5432 22.6313C36.8106 21.9116 39.1063 21.2674 41.3737 20.5468C42.1698 20.206 42.2216 19.3524 41.4152 18.9894L13.557 9.02758Z" fill="#3498DB"/>
<path d="M16.8763 32.6099C17.6271 32.514 18.6257 31.7606 18.979 31.1297C19.5526 30.1065 19.1523 28.732 19.2936 27.6103C20.1056 27.1249 20.7151 26.5339 21.1126 25.7006L32.0503 29.4969C34.1218 29.7569 33.9899 27.778 34.7868 26.5827L35.8476 26.8507C35.8466 27.1445 35.8739 27.4985 36.0981 27.7248C36.2479 27.8756 37.7467 28.4214 37.9878 28.4374C38.3976 28.464 38.6491 28.2341 38.8253 27.9085C39.1842 27.2438 40.3956 24.1601 40.5265 23.4733C40.7074 22.5256 39.5827 22.4093 38.8356 22.231C37.1353 22.7607 35.4303 23.2772 33.7365 23.8238C32.0042 24.3829 30.121 25.4788 28.27 24.9836L10.4245 18.6787C10.0505 19.8847 9.16974 21.3436 10.8004 22.0952C11.2676 22.3108 14.0399 23.1405 14.1511 23.2896C14.1653 23.8158 13.9636 24.1939 14.0051 24.7565C14.0946 25.9766 14.8962 26.9909 15.9815 27.597V29.5049H9.29314V24.9348C9.29314 24.6837 8.66953 24.1806 8.39823 24.1806H5.99609V39H8.49243C8.74301 39 9.29314 38.4418 9.29314 38.2457V32.6108H16.8763V32.6099ZM18.0784 22.8699C19.8673 23.1574 19.9077 25.9376 17.9126 26.131C15.1138 26.4026 15.2872 22.4208 18.0784 22.8699Z" fill="#3498DB"/>
</g>
</svg>
