<svg width="64" height="64" viewBox="0 0 64 64" fill="none" xmlns="http://www.w3.org/2000/svg">
<rect width="64" height="64" rx="16" fill="#C94050"/>
<path d="M37.8517 24.2249L30.9824 27.7434M37.8517 39.7747L30.9862 36.2582M43.8215 27.8731C47.5251 27.8731 50.5273 24.8708 50.5273 21.1673C50.5273 17.4638 47.5251 14.4614 43.8215 14.4614C40.1179 14.4614 37.1156 17.4638 37.1156 21.1673C37.1156 24.8708 40.1179 27.8731 43.8215 27.8731Z" stroke="white" stroke-width="2" stroke-miterlimit="10" stroke-linecap="round" stroke-linejoin="round"/>
<path d="M42.0034 23.7482L44.2861 23.7676C44.9843 23.773 45.5736 23.1963 45.5757 22.4809C45.5778 21.767 44.9938 21.1869 44.2726 21.1869H43.272C42.5501 21.1869 41.9648 20.6075 41.9648 19.8929C41.9648 19.1782 42.5501 18.5996 43.272 18.5996H45.2977M43.7706 24.7783V23.763M43.7706 18.6002V17.5566" stroke="white" stroke-width="2" stroke-linecap="round" stroke-linejoin="round"/>
<path d="M22.1563 41.8006C27.5692 41.8006 31.9572 37.4126 31.9572 31.9998C31.9572 26.5869 27.5692 22.2505 22.1563 22.2505C16.7435 22.2505 12.3555 26.5869 12.3555 31.9998C12.3555 37.4126 16.7435 41.8006 22.1563 41.8006Z" stroke="white" stroke-width="2" stroke-miterlimit="10" stroke-linecap="round" stroke-linejoin="round"/>
<path d="M25.7668 28.3891L18.5451 35.6108M24.9931 36.1267C25.7053 36.1267 26.2827 35.5493 26.2827 34.8371C26.2827 34.1248 25.7053 33.5475 24.9931 33.5475C24.2808 33.5475 23.7035 34.1248 23.7035 34.8371C23.7035 35.5493 24.2808 36.1267 24.9931 36.1267ZM19.3189 30.4525C20.0311 30.4525 20.6085 29.8751 20.6085 29.1629C20.6085 28.4506 20.0311 27.8733 19.3189 27.8733C18.6066 27.8733 18.0293 28.4506 18.0293 29.1629C18.0293 29.8751 18.6066 30.4525 19.3189 30.4525Z" stroke="white" stroke-width="2" stroke-linecap="round" stroke-linejoin="round"/>
<path d="M43.8211 49.5382C47.5246 49.5382 50.5269 46.5358 50.5269 42.8323C50.5269 39.1287 47.5246 36.1265 43.8211 36.1265C40.1175 36.1265 37.1152 39.1287 37.1152 42.8323C37.1152 46.5359 40.1175 49.5382 43.8211 49.5382Z" stroke="white" stroke-width="2" stroke-miterlimit="10" stroke-linecap="round" stroke-linejoin="round"/>
<path d="M42.0034 45.4132L44.2861 45.4326C44.9843 45.438 45.5736 44.8613 45.5757 44.1459C45.5778 43.432 44.9938 42.8519 44.2726 42.8519H43.272C42.5501 42.8519 41.9648 42.2725 41.9648 41.5579C41.9648 40.8433 42.5501 40.2645 43.272 40.2645H45.2977M43.7706 46.4434V45.428M43.7706 40.2652V39.2217" stroke="white" stroke-width="2" stroke-linecap="round" stroke-linejoin="round"/>
</svg>
