<svg width="64" height="64" viewBox="0 0 64 64" fill="none" xmlns="http://www.w3.org/2000/svg">
<rect width="64" height="64" rx="16" fill="#C94050"/>
<path d="M35.42 34.4418V32.4883M39.3269 34.4418V30.5348M28.5828 34.4418V32.4883M24.6758 34.4418V30.5348M40.7921 19.7906C42.4104 19.7906 43.7223 18.4788 43.7223 16.8604C43.7223 15.2421 42.4104 13.9302 40.7921 13.9302C39.1737 13.9302 37.8618 15.2421 37.8618 16.8604C37.8618 18.4788 39.1737 19.7906 40.7921 19.7906Z" stroke="white" stroke-width="2" stroke-miterlimit="10" stroke-linecap="round" stroke-linejoin="round"/>
<path d="M34.9316 26.6278C34.9316 24.2003 36.8995 22.2324 39.327 22.2324H42.2572C44.6847 22.2324 46.6526 24.2003 46.6526 26.6278V28.0929H34.9316V26.6278Z" stroke="white" stroke-width="2" stroke-linejoin="round"/>
<path d="M23.2095 19.7906C24.8279 19.7906 26.1398 18.4788 26.1398 16.8604C26.1398 15.2421 24.8279 13.9302 23.2095 13.9302C21.5912 13.9302 20.2793 15.2421 20.2793 16.8604C20.2793 18.4788 21.5912 19.7906 23.2095 19.7906Z" stroke="white" stroke-width="2" stroke-miterlimit="10" stroke-linecap="round" stroke-linejoin="round"/>
<path d="M17.3496 26.6278C17.3496 24.2003 19.3175 22.2324 21.745 22.2324H24.6752C27.1027 22.2324 29.0705 24.2003 29.0705 26.6278V28.0929H17.3496V26.6278Z" stroke="white" stroke-width="2" stroke-linejoin="round"/>
<path d="M24.6758 40.7905H28.5828M35.42 40.7905H39.3269" stroke="white" stroke-width="2" stroke-linecap="round" stroke-linejoin="round"/>
<path d="M28.5828 37.3721H24.6758V43.2325C24.6758 47.2783 27.9556 50.5581 32.0014 50.5581C36.0471 50.5581 39.3269 47.2783 39.3269 43.2325V37.3721H35.42V43.2325C35.42 45.1206 33.8894 46.6511 32.0014 46.6511C30.1133 46.6511 28.5828 45.1206 28.5828 43.2325V37.3721Z" stroke="white" stroke-width="2" stroke-linejoin="round"/>
</svg>
